<?xml version="1.0" standalone="no"?>
<!DOCTYPE svg PUBLIC "-//W3C//DTD SVG 20010904//EN"
 "http://www.w3.org/TR/2001/REC-SVG-20010904/DTD/svg10.dtd">
<svg version="1.0" xmlns="http://www.w3.org/2000/svg"
 width="500.000000pt" height="231.000000pt" viewBox="0 0 500.000000 231.000000"
 preserveAspectRatio="xMidYMid meet">
<g transform="translate(0.000000,231.000000) scale(0.100000,-0.100000)"
fill="#ffffff" stroke="none">
<path d="M293 1960 c-64 -40 -65 -43 -68 -240 -1 -121 1 -185 9 -195 17 -23
184 -48 281 -42 121 7 188 30 229 79 34 39 38 68 9 68 -8 0 -40 -7 -71 -16
-45 -13 -82 -15 -177 -11 -66 3 -130 9 -142 13 -26 7 -28 25 -16 159 l6 77
264 -4 c146 -2 267 -8 272 -14 6 -5 5 -47 -2 -104 -6 -52 -11 -156 -10 -230 0
-74 1 -356 1 -626 1 -438 3 -492 17 -504 14 -12 22 -8 60 31 l44 44 -1 470 c0
259 -1 542 -1 630 -1 88 3 212 8 276 8 113 7 117 -14 128 -14 8 -120 13 -309
17 -158 2 -303 6 -324 8 -22 3 -47 -3 -65 -14z"/>
<path d="M1092 1938 c-69 -69 -59 -78 86 -78 217 0 371 -77 407 -204 8 -28 19
-103 25 -166 5 -63 13 -147 16 -186 5 -59 3 -83 -15 -137 -21 -62 -25 -67 -61
-77 -52 -14 -175 -17 -290 -7 l-95 9 -37 -38 c-21 -20 -38 -44 -38 -52 0 -15
100 -141 181 -227 88 -94 229 -254 229 -259 0 -2 -63 -6 -140 -8 l-139 -3 -46
-45 c-73 -71 -68 -74 135 -72 96 1 211 5 254 9 75 6 82 8 123 46 24 22 43 45
43 52 0 7 -23 32 -51 55 -58 49 -357 374 -367 400 -1 4 37 10 86 13 116 8 166
28 225 85 55 53 90 116 112 199 13 49 14 78 5 183 -25 288 -41 348 -106 415
-88 91 -229 135 -435 135 -64 0 -67 -1 -107 -42z"/>
<path d="M1925 1962 c-39 -25 -84 -77 -89 -105 -3 -12 -10 -67 -16 -121 -14
-122 -11 -126 95 -126 69 0 72 1 109 39 51 53 44 69 -31 73 l-58 3 3 65 c2 36
8 68 15 72 7 4 39 6 72 3 33 -3 99 -7 146 -11 l86 -6 7 -247 c4 -136 5 -258 2
-272 -3 -13 -10 -141 -16 -284 -15 -343 -38 -473 -90 -500 -46 -24 -157 -29
-209 -11 l-45 16 -43 -42 c-24 -23 -43 -46 -43 -50 0 -15 47 -38 95 -47 55
-10 175 3 215 24 38 20 149 134 170 175 32 62 49 198 65 500 15 299 20 752 9
809 -4 17 -14 36 -24 41 -10 5 -102 12 -206 16 -176 5 -191 4 -219 -14z"/>
<path d="M3931 1906 l-44 -45 3 -633 c2 -348 0 -680 -5 -738 -6 -85 -5 -107 6
-116 21 -16 287 -34 502 -34 l188 0 41 38 41 39 3 182 c2 176 1 182 -20 196
-59 38 -290 50 -393 20 -50 -14 -71 -27 -104 -62 -35 -38 -39 -47 -28 -58 12
-11 27 -10 89 7 60 15 93 18 165 14 121 -8 166 -16 172 -33 3 -7 2 -61 -2
-120 l-7 -106 -242 6 c-132 3 -254 10 -271 15 -28 8 -29 10 -27 63 2 30 7 88
13 129 8 50 9 135 3 255 -5 99 -8 369 -9 600 0 474 3 459 -74 381z"/>
<path d="M3479 1921 l-226 -6 -36 -28 c-70 -53 -69 -62 11 -136 71 -67 357
-380 350 -385 -1 -2 -43 -8 -93 -14 -137 -17 -162 -27 -225 -91 -41 -40 -63
-73 -79 -116 -36 -97 -40 -135 -25 -301 23 -267 39 -320 113 -387 90 -82 206
-117 386 -117 l111 0 38 39 c53 55 45 71 -36 71 -270 0 -426 75 -469 223 -5
17 -16 115 -25 218 -14 170 -14 193 0 241 24 83 31 88 125 101 62 8 114 8 204
-1 l121 -12 38 37 c21 20 38 43 38 50 0 19 -67 107 -147 194 -103 113 -258
289 -261 300 -2 5 55 9 138 9 l143 0 44 45 c25 24 43 50 41 57 -5 16 -1 16
-279 9z"/>
<path d="M2845 1904 c-11 -3 -37 -10 -57 -15 -21 -6 -60 -31 -93 -61 -134
-122 -147 -170 -170 -623 -19 -376 -20 -790 -2 -825 16 -31 61 -38 275 -42
l153 -3 53 55 53 55 12 119 c9 87 10 121 2 129 -7 7 -44 13 -84 15 l-72 4 -43
-44 c-58 -60 -51 -78 30 -78 l60 0 -7 -62 c-4 -35 -11 -67 -15 -72 -5 -4 -74
-4 -157 0 l-148 9 -3 295 c-3 325 19 783 42 893 18 86 36 113 85 128 38 11
165 8 209 -6 18 -6 30 1 63 34 45 45 46 59 3 80 -29 15 -153 24 -189 15z"/>
</g>
</svg>
